<svg viewBox="-5 0 394 394.00003" xmlns="http://www.w3.org/2000/svg" fill="whitesmoke"><path d="M367.820312 0H16.558594C10.359375-.0117188 4.679688 3.449219 1.847656 8.960938-1.023438 14.546875-.519531 21.273438 3.148438 26.375l128.6875 181.285156c.042968.0625.089843.121094.132812.183594 4.675781 6.3125 7.207031 13.960938 7.21875 21.816406v147.800782c-.027344 4.375 1.691406 8.582031 4.773438 11.6875C147.046875 392.25 151.242188 394 155.617188 394c2.222656-.003906 4.425781-.445312 6.480468-1.300781l72.3125-27.570313c6.476563-1.980468 10.777344-8.09375 10.777344-15.453125V229.660156c.011719-7.855468 2.542969-15.503906 7.214844-21.816406.042968-.0625.089844-.121094.132812-.183594L381.226562 26.371094c3.667969-5.097656 4.171876-11.820313 1.300782-17.40625C379.699219 3.449219 374.015625-.0117188 367.820312 0zm0 0"/></svg>